<?xml version="1.0" encoding="utf-8"?>
<!-- Generator: Adobe Illustrator 22.1.0, SVG Export Plug-In . SVG Version: 6.00 Build 0)  -->
<svg version="1.1" id="Слой_1" xmlns="http://www.w3.org/2000/svg" xmlns:xlink="http://www.w3.org/1999/xlink" x="0px" y="0px"
	 viewBox="0 0 566.9 566.9" style="enable-background:new 0 0 566.9 566.9;" xml:space="preserve">
<style type="text/css">
	.st0{fill:#FFFFFF;}
	.st1{fill:#7645FF;}
</style>
<rect x="39" y="44" class="st0" width="481.5" height="481.5"/>
<path class="st1" d="M467,0H99.9C44.7,0,0,44.7,0,99.9V467c0,55.2,44.7,99.9,99.9,99.9H467c55.2,0,99.9-44.7,99.9-99.9V99.9
	C566.9,44.7,522.2,0,467,0z M485.1,211.3L413,283.4l72.2,72.2v101.5c0,15.5-12.5,28-28,28H109.8c-15.5,0-28-12.5-28-28V355.6h213.1
	l-72.2-72.2l12.9-12.9l59.3-59.3H81.8V109.8c0-15.4,12.5-28,28-28h347.4c15.5,0,28,12.5,28,28V211.3z"/>
</svg>
